FDS_states
version=1
nRows=4
nColumns=142
inDegrees=yes

# SIMM Motion File Header:
name FDS_states
datacolumns 142
datarows 4
otherdata 1
range 0.61999999999999999556 0.62071530711111944090
endheader
time	/jointset/groundthorax/r_z/value	/jointset/groundthorax/r_z/speed	/jointset/sternoclavicular/sternoclavicular_r2/value	/jointset/sternoclavicular/sternoclavicular_r2/speed	/jointset/sternoclavicular/sternoclavicular_r3/value	/jointset/sternoclavicular/sternoclavicular_r3/speed	/jointset/unrotscap/unrotscap_r3/value	/jointset/unrotscap/unrotscap_r3/speed	/jointset/unrotscap/unrotscap_r2/value	/jointset/unrotscap/unrotscap_r2/speed	/jointset/acromioclavicular/acromioclavicular_r2/value	/jointset/acromioclavicular/acromioclavicular_r2/speed	/jointset/acromioclavicular/acromioclavicular_r3/value	/jointset/acromioclavicular/acromioclavicular_r3/speed	/jointset/acromioclavicular/acromioclavicular_r1/value	/jointset/acromioclavicular/acromioclavicular_r1/speed	/jointset/unrothum/unrothum_r1/value	/jointset/unrothum/unrothum_r1/speed	/jointset/unrothum/unrothum_r3/value	/jointset/unrothum/unrothum_r3/speed	/jointset/unrothum/unrothum_r2/value	/jointset/unrothum/unrothum_r2/speed	/jointset/shoulder0/elv_angle/value	/jointset/shoulder0/elv_angle/speed	/jointset/shoulder1/shoulder_elv/value	/jointset/shoulder1/shoulder_elv/speed	/jointset/shoulder1/shoulder1_r2/value	/jointset/shoulder1/shoulder1_r2/speed	/jointset/shoulder2/shoulder_rot/value	/jointset/shoulder2/shoulder_rot/speed	/jointset/elbow/elbow_flexion/value	/jointset/elbow/elbow_flexion/speed	/jointset/radioulnar/pro_sup/value	/jointset/radioulnar/pro_sup/speed	/jointset/radiocarpal/deviation/value	/jointset/radiocarpal/deviation/speed	/jointset/radiocarpal/flexion/value	/jointset/radiocarpal/flexion/speed	/jointset/wrist_hand/wrist_hand_r1/value	/jointset/wrist_hand/wrist_hand_r1/speed	/jointset/wrist_hand/wrist_hand_r3/value	/jointset/wrist_hand/wrist_hand_r3/speed	/forceset/DELT1/activation	/forceset/DELT1/fiber_length	/forceset/DELT2/activation	/forceset/DELT2/fiber_length	/forceset/DELT3/activation	/forceset/DELT3/fiber_length	/forceset/SUPSP/activation	/forceset/SUPSP/fiber_length	/forceset/INFSP/activation	/forceset/INFSP/fiber_length	/forceset/SUBSC/activation	/forceset/SUBSC/fiber_length	/forceset/TMIN/activation	/forceset/TMIN/fiber_length	/forceset/TMAJ/activation	/forceset/TMAJ/fiber_length	/forceset/PECM1/activation	/forceset/PECM2/activation	/forceset/PECM2/fiber_length	/forceset/PECM3/activation	/forceset/PECM3/fiber_length	/forceset/LAT1/activation	/forceset/LAT1/fiber_length	/forceset/LAT2/activation	/forceset/LAT2/fiber_length	/forceset/LAT3/activation	/forceset/LAT3/fiber_length	/forceset/CORB/activation	/forceset/CORB/fiber_length	/forceset/TRIlong/activation	/forceset/TRIlong/fiber_length	/forceset/TRIlat/activation	/forceset/TRIlat/fiber_length	/forceset/TRImed/activation	/forceset/TRImed/fiber_length	/forceset/ANC/activation	/forceset/ANC/fiber_length	/forceset/SUP/activation	/forceset/SUP/fiber_length	/forceset/BIClong/activation	/forceset/BIClong/fiber_length	/forceset/BICshort/activation	/forceset/BICshort/fiber_length	/forceset/BRA/activation	/forceset/BRA/fiber_length	/forceset/BRD/activation	/forceset/BRD/fiber_length	/forceset/ECRL/activation	/forceset/ECRL/fiber_length	/forceset/ECRB/activation	/forceset/ECRB/fiber_length	/forceset/ECU/activation	/forceset/ECU/fiber_length	/forceset/FCR/activation	/forceset/FCR/fiber_length	/forceset/FCU/activation	/forceset/FCU/fiber_length	/forceset/PL/activation	/forceset/PL/fiber_length	/forceset/PT/activation	/forceset/PT/fiber_length	/forceset/PQ/activation	/forceset/PQ/fiber_length	/forceset/FDSL/activation	/forceset/FDSL/fiber_length	/forceset/FDSR/activation	/forceset/FDSR/fiber_length	/forceset/FDSM/activation	/forceset/FDSM/fiber_length	/forceset/FDSI/activation	/forceset/FDSI/fiber_length	/forceset/FDPL/activation	/forceset/FDPL/fiber_length	/forceset/FDPR/activation	/forceset/FDPR/fiber_length	/forceset/FDPM/activation	/forceset/FDPM/fiber_length	/forceset/FDPI/activation	/forceset/FDPI/fiber_length	/forceset/EDCL/activation	/forceset/EDCL/fiber_length	/forceset/EDCR/activation	/forceset/EDCR/fiber_length	/forceset/EDCM/activation	/forceset/EDCM/fiber_length	/forceset/EDCI/activation	/forceset/EDCI/fiber_length	/forceset/EDM/activation	/forceset/EDM/fiber_length	/forceset/EIP/activation	/forceset/EIP/fiber_length	/forceset/EPL/activation	/forceset/EPL/fiber_length	/forceset/EPB/activation	/forceset/EPB/fiber_length	/forceset/FPL/activation	/forceset/FPL/fiber_length	/forceset/APL/activation	/forceset/APL/fiber_length
      0.61999999999999999556	     10.00000027505223165747	     -0.00000000000000000000	     -3.55181780323098239549	     -0.40417026400775724060	      1.50438238478257901853	      0.17118744803663374365	     -1.50438238478257901853	     -0.17118744803663374365	      3.55181780323098239549	      0.40417026400775724060	     -0.71917085562275873123	     -0.08183625700601071529	      5.81208588227329325804	      0.66137184270467785918	      2.61249260405023697729	      0.29728209159174329157	     -2.61249260405023697729	     -0.29728209159174329157	     -5.81208588227329325804	     -0.66137184270467785918	      0.71917085562275873123	      0.08183625700601071529	    -23.24636583821596147459	     25.37295123507382399453	     14.67690017548702208217	      1.67012131459726198557	     23.24636583821596147459	    -25.37295123507382399453	     -6.60673955176307536874	      2.84860320442056824675	     97.94260080421511815985	     -2.13920525066185618357	     21.66730223354032602856	      7.63476930485967297813	      0.00000000137076476846	     -0.00000000000000000000	     -0.00000000000000000000	      0.00000000000000000000	      0.00000010658852164571	     -0.00000000000000000000	     -0.00000000000000000000	      0.00000000000000000000	      0.70485106399999997162	      0.12478061000000000014	      0.64120424399999997878	      0.09179228600000000071	      0.02000000000000000042	      0.11374310999999999450	      0.20509668000000000343	      0.06705956799999999995	      0.17315539199999999131	      0.07588720399999999977	      0.07047526899999999317	      0.08053836000000000328	      0.02000000000000000042	      0.06107913200000000126	      0.03995776599999999873	      0.12287307000000000090	      0.02000000000000000042	      0.02000000000000000042	      0.10906473699999999494	      0.02000000000000000042	      0.08310180899999999871	      0.02000000000000000042	      0.16817298199999999864	      0.02000000000000000042	      0.13183849899999999788	      0.02000000000000000042	      0.19625542900000000901	      0.02000000000000000042	      0.07371967100000000050	      0.02000000000000000042	      0.17009044100000000888	      0.02000000000000000042	      0.10707986999999999367	      0.02000000000000000042	      0.10201325799999999555	      0.02000000000000000042	      0.02286203100000000141	      0.02000000000000000042	      0.03611388399999999888	      0.08218021000000000353	      0.11304395600000000099	      0.02000000000000000042	      0.12223478699999999753	      0.03707532399999999978	      0.06542328000000000032	      0.02503999599999999839	      0.11678158700000000614	      0.06799383400000000299	      0.05902007900000000307	      0.06151699399999999845	      0.06045197900000000291	      0.04672461499999999712	      0.06988866900000000049	      0.02000000000000000042	      0.04801173899999999772	      0.02000000000000000042	      0.03252585499999999935	      0.02000000000000000042	      0.04729469299999999876	      0.13250239099999999715	      0.03727823100000000195	      0.04985632000000000258	      0.02378400699999999937	      0.02000000000000000042	      0.03325440400000000130	      0.02000000000000000042	      0.05652482899999999866	      0.02000000000000000042	      0.07193583100000000563	      0.02000000000000000042	      0.08415238299999999727	      0.02000000000000000042	      0.07374786899999999368	      0.02000000000000000042	      0.07760271400000000319	      0.02000000000000000042	      0.07380517799999999906	      0.02000000000000000042	      0.07333412500000000001	      0.02000000000000000042	      0.07855419399999999386	      0.05107078000000000312	      0.06689324700000000290	      0.03449346799999999935	      0.07928665399999999808	      0.02373619700000000055	      0.07268092800000000575	      0.02000000000000000042	      0.07866140000000000632	      0.02000000000000000042	      0.06547428900000000496	      0.02000000000000000042	      0.06217286999999999814	      0.02000000000000000042	      0.06753197800000000639	      0.02000000000000000042	      0.05937130000000000185	      0.02000000000000000042	      0.07026599899999999566
      0.62024857254463250378	     10.00000027505223165747	      0.00000000000036941137	     -3.55191820497836951986	     -0.40362422433925287946	      1.50442491022406787948	      0.17095617140469812623	     -1.50442491022406787948	     -0.17095617140469634987	      3.55191820497836951986	      0.40362422433922989784	     -0.71919118493427602878	     -0.08172569508040607167	      5.81225017661801324209	      0.66047832011309903777	      2.61256645322747926841	      0.29688045933620071937	     -2.61256645322747926841	     -0.29688045933621398653	     -5.81225017661801324209	     -0.66047832011305540600	      0.71919118493427602878	      0.08172569508040652964	    -23.24004335754172956285	     25.49737809181912595591	     14.67731505781080159068	      1.66786495738799933619	     23.24004335754172956285	    -25.49737809181915082490	     -6.60602998908582250692	      2.85938074257889152108	     97.94206763198903331613	     -2.15043532427597217094	     21.66919626663539588662	      7.61227228155548818478	      0.00000000137076476863	      0.00000000000000232301	     -0.00000000000000000019	      0.00000000000000131936	      0.00000010658852168016	     -0.00000000000001091237	      0.00000000000000001749	      0.00000000000036784970	      0.70479926798350389650	      0.12478282769665886842	      0.64106708264092548966	      0.09179739117980921514	      0.02000000000000000042	      0.11374416863569417058	      0.20648503777612878252	      0.06705925445120200501	      0.17357023978628227656	      0.07588727925540714181	      0.07106375704568151930	      0.08053806421680213823	      0.02000000000000000042	      0.06107952124399630700	      0.03994365541702626227	      0.12290902252722035737	      0.02034410232991168063	      0.02054815810964060602	      0.10906436234971567112	      0.02004575036442515779	      0.08310175971653870064	      0.02000000000000000042	      0.16817363313220240473	      0.02000000000000000042	      0.13183933981008177927	      0.02000000000000000042	      0.19625616726952965774	      0.02000000000000000042	      0.07371971038977076507	      0.02000000000000000042	      0.17009131064914209674	      0.02054302332345841683	      0.10707945262837526013	      0.02056559612777554905	      0.10201283591826115771	      0.02000000000000000042	      0.02286193178085739464	      0.02000000000000000042	      0.03611412273599064887	      0.08280860909579269846	      0.11304587769149072873	      0.02000000000000000042	      0.12223588585075391422	      0.03705948101569375014	      0.06542351241150624885	      0.02503644214353973815	      0.11678240128508790563	      0.06791471740892039699	      0.05902130016905882126	      0.06146788353995284726	      0.06045360999286673170	      0.04668766923683941028	      0.06988919625807858693	      0.02000000000000000042	      0.04801184403003074669	      0.02000000000000000042	      0.03252599128083145247	      0.02000000000000000042	      0.04729483881038599319	      0.13310472109485502190	      0.03727873272205931010	      0.05027759580355479346	      0.02378373371654194171	      0.02000000000000000042	      0.03325453784398878926	      0.02000000000000000042	      0.05652493246651607572	      0.02000000000000000042	      0.07193576602089048200	      0.02000000000000000042	      0.08415230541688341337	      0.02000000000000000042	      0.07374782707072498333	      0.02000000000000000042	      0.07760266931809869928	      0.02000000000000000042	      0.07380511929479227629	      0.02000000000000000042	      0.07333405705891997417	      0.02000000000000000042	      0.07855421047618996178	      0.05099432668699335064	      0.06689613839600690171	      0.03450500275669782929	      0.07928692623191914424	      0.02376572025888817191	      0.07268084972828060819	      0.02000000000000000042	      0.07866141483550599667	      0.02000000000000000042	      0.06547429674367039043	      0.02000000000000000042	      0.06217292176808261739	      0.02000000000000000042	      0.06753197883648588695	      0.02000000000000000042	      0.05937130010695017973	      0.02000000000000000042	      0.07026599971264807509
      0.62049714508926501200	     10.00000027505223165747	      0.00000000000047943969	     -3.55201845151645656529	     -0.40293702143255694104	      1.50446736992622276397	      0.17066510468763496089	     -1.50446736992622276397	     -0.17066510468765849762	      3.55201845151645656529	      0.40293702143252818626	     -0.71921148281906721600	     -0.08158655047057206122	      5.81241421698298665888	      0.65935380232148277369	      2.61264018824257338025	      0.29637499632807040584	     -2.61264018824257382434	     -0.29637499632809199968	     -5.81241421698298665888	     -0.65935380232146412194	      0.71921148281906721600	      0.08158655047058854803	    -23.23368994297020861950	     25.62180017954592869955	     14.67772929877527587905	      1.66502528232004620712	     23.23368994297020861950	    -25.62180017954596067398	     -6.60531833438719218066	      2.86632863902723178384	     97.94153176801206939217	     -2.16113401164715623892	     21.67108921794918074966	      7.62189171978842860966	      0.00000000137076476968	      0.00000000000000691443	      0.00000000000000000101	      0.00000000000001068206	      0.00000010658852165288	     -0.00000000000029355452	      0.00000000000000012808	      0.00000000000059573605	      0.70723287197349138378	      0.12478486592131261823	      0.64413513599576599500	      0.09180217835695696216	      0.02000000000000000042	      0.11374523541158546025	      0.21095034035469997780	      0.06705851945515585444	      0.17498244253144923377	      0.07588718542402030087	      0.07288023426244394365	      0.08053726745795408704	      0.02000000000000000042	      0.06107991179350726746	      0.03989951758208986482	      0.12291710231425245770	      0.02135341578807898807	      0.02215422903370154947	      0.10906257134933902697	      0.02018016207736934853	      0.08310162559636259660	      0.02000000000000000042	      0.16817428847028792482	      0.02000000000000000042	      0.13184018540767492023	      0.02000000000000000042	      0.19625690952288490920	      0.02000000000000000042	      0.07371974831512798088	      0.02000000000000000042	      0.17009218489606428570	      0.02213409376538134563	      0.10707770553209185194	      0.02222260332707882632	      0.10201106658027045415	      0.02000000000000000042	      0.02286183205496368845	      0.02000000000000000042	      0.03611436139917302557	      0.08579589884937829924	      0.11304675666408707524	      0.02000000000000000042	      0.12223698587084176614	      0.03702043016765017153	      0.06542376067641249293	      0.02502572217030489890	      0.11678323013096680860	      0.06778583670244163473	      0.05902254304533833401	      0.06178609129000442457	      0.06045517387148097166	      0.04663218298466194345	      0.06988973092267292131	      0.02000000000000000042	      0.04801194963781979519	      0.02000000000000000042	      0.03252612819078352230	      0.02000000000000000042	      0.04729498536841881401	      0.13628760287223967707	      0.03727893041969913834	      0.05152725327815778356	      0.02378334095672353724	      0.02000000000000000042	      0.03325467241673550622	      0.02000000000000000042	      0.05652503650726005413	      0.02000000000000000042	      0.07193570099446591759	      0.02000000000000000042	      0.08415222780022214855	      0.02000000000000000042	      0.07374778511799134906	      0.02000000000000000042	      0.07760262461244310517	      0.02000000000000000042	      0.07380506055868987780	      0.02000000000000000042	      0.07333398906268639994	      0.02000000000000000042	      0.07855422703313467980	      0.05096387109837961088	      0.06689900572481302654	      0.03468006367216441149	      0.07928713719220985279	      0.02385205623881126238	      0.07268072852482006241	      0.02000000000000000042	      0.07866142966116529411	      0.02000000000000000042	      0.06547430448610069842	      0.02000000000000000042	      0.06217297354980708124	      0.02000000000000000042	      0.06753197961247231484	      0.02000000000000000042	      0.05937130020956180726	      0.02000000000000000042	      0.07026600037640849672
      0.62071530711111944090	     10.00000027505223165747	      0.00000000000067955733	     -3.55210628433634578727	     -0.40225951078926713844	      1.50450457176324459141	      0.17037814315590296688	     -1.50450457176324459141	     -0.17037814315592855752	      3.55210628433634578727	      0.40225951078927801863	     -0.71922926717843771449	     -0.08144936834696726857	      5.81255794391965974199	      0.65824514465294026166	      2.61270479251144793764	      0.29587666233605430799	     -2.61270479251144838173	     -0.29587666233608733712	     -5.81255794391965974199	     -0.65824514465289674092	      0.71922926717843771449	      0.08144936834701221873	    -23.22808833710693576791	     25.73089850055744776114	     14.67809224349853103320	      1.66222565783755360513	     23.22808833710693576791	    -25.73089850055747973556	     -6.60469238555881510422	      2.87209315206845872126	     97.94105923017924908436	     -2.17094583833915377724	     21.67275462858826529100	      7.64924312490052127345	      0.00000000137076477179	      0.00000000000001089143	      0.00000000000000000544	      0.00000000000002144465	      0.00000010658852152534	     -0.00000000000052927261	      0.00000000000000026764	      0.00000000000060933233	      0.71115542038395351820	      0.12478637523427207889	      0.64920017420060038837	      0.09180587323807931632	      0.02000000000000000042	      0.11374617793867873583	      0.21689392736515469839	      0.06705723605786664820	      0.17689164894264530759	      0.07588684061515442447	      0.07527746647506623756	      0.08053586262835414622	      0.02000000000000000042	      0.06108025563668371960	      0.03984036241585400817	      0.12292043763587622018	      0.02266973295190418888	      0.02424496482940445563	      0.10905916051127817479	      0.02035593603146704234	      0.08310139191385279567	      0.02000000000000000042	      0.16817486698273659274	      0.02000000000000000042	      0.13184093149746667351	      0.02000000000000000042	      0.19625756421837053933	      0.02000000000000000042	      0.07371978038508497644	      0.02000000000000000042	      0.17009295596956092167	      0.02420539796742006422	      0.10707435403035939214	      0.02437930857886788996	      0.10200768491622053125	      0.02000000000000000042	      0.02286174411119728730	      0.02000000000000000042	      0.03611457094002799156	      0.09001675833817397721	      0.11304575138859758454	      0.02000000000000000042	      0.12223795231583213516	      0.03697012756871743272	      0.06542400133864047229	      0.02501137482127160569	      0.11678397648056915159	      0.06763841243616365573	      0.05902366848305010127	      0.06262255164866187274	      0.06045631043876322636	      0.04657069421301352624	      0.06989021261431298260	      0.02000000000000000042	      0.04801204280213910991	      0.02000000000000000042	      0.03252624886963922241	      0.02000000000000000042	      0.04729511461303959746	      0.14084919865986381127	      0.03727856542096137649	      0.05316291292660875467	      0.02378284783500868999	      0.02000000000000000042	      0.03325479112585683766	      0.02000000000000000042	      0.05652512829292881402	      0.02000000000000000042	      0.07193564388400919274	      0.02000000000000000042	      0.08415215965029433642	      0.02000000000000000042	      0.07374774827798610821	      0.02000000000000000042	      0.07760258535599126595	      0.02000000000000000042	      0.07380500898218750327	      0.02000000000000000042	      0.07333392933938509550	      0.02000000000000000042	      0.07855424163096789980	      0.05103622049776043029	      0.06690147098266931158	      0.03495844397254785352	      0.07928718396048078931	      0.02396490944301649800	      0.07268055459093815396	      0.02000000000000000042	      0.07866144266496155613	      0.02000000000000000042	      0.06547431128059462424	      0.02000000000000000042	      0.06217301900895056549	      0.02000000000000000042	      0.06753198024714039682	      0.02000000000000000042	      0.05937130029618430116	      0.02000000000000000042	      0.07026600092133827857
